<?xml version="1.0" standalone="no"?>
<!DOCTYPE svg PUBLIC "-//W3C//DTD SVG 20010904//EN"
 "http://www.w3.org/TR/2001/REC-SVG-20010904/DTD/svg10.dtd">
<svg version="1.0" xmlns="http://www.w3.org/2000/svg"
 width="230.000000pt" height="230.000000pt" viewBox="0 0 230.000000 230.000000"
 preserveAspectRatio="xMidYMid meet">
<metadata>
Created by potrace 1.14, written by Peter Selinger 2001-2017
</metadata>
<g transform="translate(0.000000,230.000000) scale(0.100000,-0.100000)"
fill="#000000" stroke="none">
<path d="M0 1150 l0 -1150 1150 0 1150 0 0 1150 0 1150 -1150 0 -1150 0 0
-1150z m835 685 c27 -26 31 -57 15 -101 -17 -44 -3 -40 50 13 100 100 232 134
300 77 17 -15 42 -48 55 -75 27 -52 25 -51 160 -82 75 -18 114 -37 187 -93 31
-24 61 -44 66 -44 5 0 22 16 37 36 42 55 113 84 208 84 56 0 87 -5 107 -17
100 -59 91 -250 -16 -310 -57 -33 -147 -31 -220 3 -31 14 -58 23 -62 20 -14
-15 23 -139 74 -248 83 -174 85 -235 11 -268 -53 -23 -201 -40 -356 -40 -114
0 -121 -1 -135 -23 -8 -12 -16 -35 -18 -52 -3 -30 -3 -30 52 -33 72 -4 189 11
377 50 l152 31 71 -66 c71 -66 116 -89 232 -122 65 -18 88 -43 62 -69 -20 -21
-29 -20 -127 5 -99 25 -180 67 -244 125 -26 24 -48 44 -48 44 -29 -1 -152 -35
-157 -43 -4 -7 -8 -42 -8 -78 0 -93 -5 -96 -170 -108 -451 -35 -422 -34 -439
-16 -14 14 -16 52 -16 300 0 215 -3 286 -12 289 -28 11 -239 17 -263 8 -25 -9
-25 -10 -26 -148 0 -124 -3 -148 -28 -224 -48 -147 -116 -238 -226 -305 -58
-35 -84 -42 -94 -26 -11 17 6 40 47 65 106 64 178 164 212 297 14 51 16 95 13
216 -3 84 -2 157 1 162 21 33 169 48 298 31 108 -14 158 -7 144 18 -24 45 -94
112 -117 112 -45 0 -223 -68 -274 -104 -27 -20 -58 -36 -67 -36 -10 0 -40 24
-67 53 -44 47 -49 50 -57 32 -4 -11 -8 -120 -8 -241 -1 -251 -8 -284 -69 -347
-68 -71 -208 -123 -307 -115 -31 2 -40 7 -40 22 0 14 17 22 90 41 115 29 134
37 173 70 71 60 97 192 87 450 -3 99 -8 188 -11 197 -3 9 -51 54 -107 100
-145 118 -187 158 -187 178 0 30 24 30 141 4 62 -14 123 -23 136 -19 22 5 23
8 23 118 0 98 3 117 23 152 12 22 34 45 47 52 53 27 133 8 179 -41 30 -32 37
-32 45 -1 8 31 40 65 61 65 9 0 27 -11 40 -25z m758 -36 c63 -24 103 -60 93
-84 -11 -29 -36 -28 -105 4 -37 17 -75 31 -83 31 -9 0 -26 8 -39 19 -20 16
-21 21 -10 35 19 22 78 20 144 -5z m497 -657 c28 -27 50 -53 50 -59 0 -20 -29
-41 -49 -36 -35 9 -101 78 -101 105 0 55 36 51 100 -10z m-178 -12 c13 -17 51
-63 86 -102 34 -40 62 -77 62 -84 0 -6 -7 -17 -16 -25 -33 -27 -123 49 -173
148 -24 48 -26 64 -9 81 18 18 24 15 50 -18z m-1614 -172 c23 -23 14 -106 -18
-172 -39 -82 -122 -150 -149 -123 -19 19 -12 42 20 73 42 39 75 99 90 159 17
71 32 88 57 63z m-160 -20 c18 -18 14 -59 -8 -95 -33 -54 -78 -34 -65 29 14
65 45 94 73 66z"/>
<path d="M519 1764 c-7 -9 -15 -43 -17 -77 l-5 -62 28 33 c21 25 34 32 63 32
21 0 44 5 52 10 12 9 9 16 -22 45 -41 38 -77 45 -99 19z"/>
<path d="M1015 1747 c-47 -27 -51 -48 -11 -58 45 -12 66 -38 66 -79 0 -56 -67
-110 -136 -110 -40 0 -83 28 -90 58 -12 54 -16 62 -30 62 -7 0 -21 -17 -29
-37 -32 -77 -103 -127 -196 -139 -80 -10 -89 -17 -89 -71 0 -28 8 -58 19 -77
21 -34 116 -116 134 -116 6 0 46 18 89 40 76 40 206 80 258 80 34 0 116 -65
159 -126 18 -24 35 -63 39 -86 7 -41 9 -43 42 -41 19 0 106 4 192 9 115 5 161
4 171 -5 9 -6 17 -41 21 -82 9 -91 13 -99 45 -99 35 0 99 18 106 31 4 5 -16
58 -43 117 -66 142 -82 199 -82 296 0 119 -11 149 -73 194 -75 56 -109 72
-191 87 -118 23 -153 41 -183 94 -14 25 -33 54 -41 64 -22 25 -97 22 -147 -6z"/>
<path d="M923 1615 c-23 -17 -10 -45 21 -45 26 0 60 26 51 40 -9 14 -55 17
-72 5z"/>
<path d="M490 1566 c0 -50 10 -61 46 -52 l25 7 -25 30 c-14 17 -26 37 -26 45
0 8 -4 14 -10 14 -5 0 -10 -20 -10 -44z"/>
<path d="M601 1595 c9 -9 23 -13 32 -9 28 10 19 24 -15 24 -29 0 -31 -2 -17
-15z"/>
<path d="M1830 1569 c-38 -16 -90 -70 -90 -94 0 -28 33 -58 90 -84 54 -25 81
-26 120 -6 41 21 60 53 60 101 0 63 -23 85 -95 90 -33 2 -71 -1 -85 -7z"/>
<path d="M356 1441 c-6 -10 49 -61 65 -61 16 0 21 27 9 49 -11 22 -63 30 -74
12z"/>
<path d="M1467 992 c-10 -2 -16 -9 -14 -15 5 -17 21 -18 41 -4 15 11 16 15 5
19 -8 2 -22 3 -32 0z"/>
<path d="M1210 975 c-69 -7 -127 -13 -129 -14 -7 -2 8 -104 17 -113 10 -10 62
7 62 21 0 5 -9 13 -20 16 -29 9 -24 27 15 52 28 18 41 20 66 13 18 -5 36 -7
41 -3 6 3 37 7 71 10 67 4 86 11 66 24 -17 10 -27 10 -189 -6z"/>
<path d="M1520 986 c0 -2 7 -6 15 -10 8 -3 15 -1 15 4 0 6 -7 10 -15 10 -8 0
-15 -2 -15 -4z"/>
<path d="M1547 893 c-5 -4 -29 -9 -55 -10 -83 -4 -102 -8 -99 -18 3 -14 144
-12 158 2 6 6 10 16 7 23 -2 6 -7 8 -11 3z"/>
<path d="M1094 656 c-3 -7 -4 -46 -2 -87 l3 -74 75 1 c41 1 111 2 155 3 174 4
297 33 266 64 -7 7 -16 3 -30 -14 -19 -23 -20 -23 -39 -6 -15 14 -25 16 -39 9
-10 -6 -30 -8 -45 -5 -15 3 -36 -2 -51 -12 -19 -12 -31 -14 -44 -7 -12 7 -25
7 -36 1 -11 -7 -24 -6 -37 1 -12 6 -34 9 -50 5 -35 -8 -65 26 -50 56 16 29 12
36 -31 57 -30 15 -42 17 -45 8z"/>
</g>
</svg>
